<svg width="500" height="285" viewBox="0 0 500 285" fill="none" xmlns="http://www.w3.org/2000/svg">
<rect width="500" height="285" fill="#E5E5E5"/>
<rect width="500" height="285" fill="white"/>
<path d="M110.707 21.2929C110.317 20.9024 109.683 20.9024 109.293 21.2929L102.929 27.6569C102.538 28.0474 102.538 28.6805 102.929 29.0711C103.319 29.4616 103.953 29.4616 104.343 29.0711L110 23.4142L115.657 29.0711C116.047 29.4616 116.681 29.4616 117.071 29.0711C117.462 28.6805 117.462 28.0474 117.071 27.6569L110.707 21.2929ZM111 254L111 22H109L109 254H111Z" fill="black"/>
<path d="M459.707 254.707C460.098 254.317 460.098 253.683 459.707 253.293L453.343 246.929C452.953 246.538 452.319 246.538 451.929 246.929C451.538 247.319 451.538 247.953 451.929 248.343L457.586 254L451.929 259.657C451.538 260.047 451.538 260.681 451.929 261.071C452.319 261.462 452.953 261.462 453.343 261.071L459.707 254.707ZM110 255H459V253H110V255Z" fill="black"/>
<line x1="136.386" y1="38.7194" x2="427.566" y2="231.844" stroke="#6FCF97" stroke-width="2" stroke-linecap="round" stroke-linejoin="round"/>
<path fill-rule="evenodd" clip-rule="evenodd" d="M111.364 4H108.636V7.63636H105V10.3636H108.636V14H111.364V10.3636H115V7.63636H111.364V4Z" fill="#6FCF97"/>
<path fill-rule="evenodd" clip-rule="evenodd" d="M472.364 249H469.636V252.636H466V255.364H469.636V259H472.364V255.364H476V252.636H472.364V249Z" fill="#6FCF97"/>
<path d="M212.545 275.437C212.545 274.999 212.39 274.662 212.08 274.425C211.775 274.188 211.221 273.949 210.419 273.707C209.617 273.465 208.979 273.197 208.505 272.9C207.598 272.331 207.145 271.588 207.145 270.672C207.145 269.87 207.47 269.209 208.122 268.689C208.778 268.17 209.628 267.91 210.672 267.91C211.365 267.91 211.982 268.038 212.524 268.293C213.067 268.548 213.493 268.913 213.803 269.387C214.113 269.856 214.268 270.378 214.268 270.952H212.545C212.545 270.433 212.381 270.027 212.053 269.735C211.729 269.439 211.264 269.291 210.658 269.291C210.093 269.291 209.653 269.412 209.339 269.653C209.029 269.895 208.874 270.232 208.874 270.665C208.874 271.03 209.043 271.335 209.38 271.581C209.717 271.823 210.273 272.06 211.048 272.292C211.823 272.52 212.445 272.782 212.914 273.078C213.383 273.37 213.728 273.707 213.946 274.09C214.165 274.468 214.274 274.912 214.274 275.423C214.274 276.252 213.955 276.913 213.317 277.405C212.684 277.893 211.823 278.137 210.733 278.137C210.013 278.137 209.35 278.005 208.744 277.74C208.143 277.471 207.673 277.102 207.336 276.633C207.003 276.163 206.837 275.617 206.837 274.992H208.566C208.566 275.557 208.753 275.995 209.127 276.305C209.501 276.615 210.036 276.77 210.733 276.77C211.335 276.77 211.786 276.649 212.087 276.407C212.392 276.161 212.545 275.838 212.545 275.437ZM220.051 278C219.978 277.859 219.914 277.629 219.859 277.31C219.331 277.861 218.684 278.137 217.918 278.137C217.175 278.137 216.569 277.925 216.1 277.501C215.63 277.077 215.396 276.553 215.396 275.929C215.396 275.14 215.687 274.536 216.271 274.117C216.858 273.693 217.697 273.481 218.786 273.481H219.805V272.996C219.805 272.613 219.698 272.308 219.483 272.08C219.269 271.848 218.943 271.731 218.506 271.731C218.128 271.731 217.818 271.827 217.576 272.019C217.335 272.205 217.214 272.445 217.214 272.736H215.553C215.553 272.331 215.687 271.952 215.956 271.602C216.225 271.246 216.59 270.968 217.05 270.768C217.515 270.567 218.032 270.467 218.602 270.467C219.467 270.467 220.158 270.686 220.673 271.123C221.188 271.556 221.452 272.167 221.466 272.955V276.291C221.466 276.956 221.559 277.487 221.746 277.884V278H220.051ZM218.226 276.804C218.554 276.804 218.861 276.724 219.148 276.564C219.44 276.405 219.659 276.191 219.805 275.922V274.527H218.909C218.294 274.527 217.831 274.634 217.521 274.849C217.212 275.063 217.057 275.366 217.057 275.758C217.057 276.077 217.161 276.332 217.371 276.523C217.585 276.71 217.87 276.804 218.226 276.804ZM224.768 270.604L224.815 271.376C225.335 270.77 226.046 270.467 226.948 270.467C227.937 270.467 228.614 270.845 228.979 271.602C229.516 270.845 230.273 270.467 231.248 270.467C232.064 270.467 232.67 270.692 233.066 271.144C233.467 271.595 233.673 272.26 233.682 273.14V278H232.021V273.188C232.021 272.718 231.918 272.374 231.713 272.155C231.508 271.937 231.168 271.827 230.694 271.827C230.316 271.827 230.006 271.93 229.765 272.135C229.528 272.335 229.361 272.6 229.266 272.928L229.272 278H227.611V273.133C227.589 272.262 227.144 271.827 226.278 271.827C225.613 271.827 225.141 272.098 224.863 272.641V278H223.202V270.604H224.768ZM241.864 274.377C241.864 275.521 241.604 276.435 241.085 277.118C240.565 277.797 239.868 278.137 238.993 278.137C238.182 278.137 237.533 277.87 237.045 277.337V280.844H235.384V270.604H236.915L236.983 271.355C237.471 270.763 238.134 270.467 238.973 270.467C239.875 270.467 240.581 270.804 241.092 271.479C241.607 272.148 241.864 273.08 241.864 274.274V274.377ZM240.21 274.233C240.21 273.495 240.062 272.91 239.766 272.477C239.474 272.044 239.055 271.827 238.508 271.827C237.829 271.827 237.341 272.107 237.045 272.668V275.949C237.346 276.523 237.838 276.811 238.521 276.811C239.05 276.811 239.463 276.599 239.759 276.175C240.06 275.746 240.21 275.099 240.21 274.233ZM245.043 278H243.382V267.5H245.043V278ZM250.115 278.137C249.062 278.137 248.208 277.806 247.552 277.146C246.9 276.48 246.574 275.596 246.574 274.493V274.288C246.574 273.55 246.715 272.891 246.998 272.312C247.285 271.729 247.686 271.276 248.201 270.952C248.716 270.629 249.29 270.467 249.924 270.467C250.931 270.467 251.708 270.788 252.255 271.431C252.806 272.073 253.082 272.982 253.082 274.158V274.828H248.249C248.299 275.439 248.502 275.922 248.857 276.277C249.217 276.633 249.669 276.811 250.211 276.811C250.972 276.811 251.592 276.503 252.07 275.888L252.966 276.742C252.67 277.184 252.273 277.528 251.776 277.774C251.284 278.016 250.73 278.137 250.115 278.137ZM249.917 271.8C249.461 271.8 249.092 271.959 248.81 272.278C248.532 272.597 248.354 273.042 248.276 273.611H251.441V273.488C251.405 272.932 251.257 272.513 250.997 272.23C250.737 271.943 250.377 271.8 249.917 271.8ZM261.736 272.121C261.518 272.085 261.292 272.066 261.06 272.066C260.299 272.066 259.786 272.358 259.521 272.941V278H257.86V270.604H259.446L259.487 271.431C259.888 270.788 260.444 270.467 261.155 270.467C261.392 270.467 261.588 270.499 261.743 270.562L261.736 272.121ZM265.906 278.137C264.854 278.137 263.999 277.806 263.343 277.146C262.691 276.48 262.365 275.596 262.365 274.493V274.288C262.365 273.55 262.507 272.891 262.789 272.312C263.076 271.729 263.477 271.276 263.992 270.952C264.507 270.629 265.081 270.467 265.715 270.467C266.722 270.467 267.499 270.788 268.046 271.431C268.597 272.073 268.873 272.982 268.873 274.158V274.828H264.04C264.09 275.439 264.293 275.922 264.648 276.277C265.008 276.633 265.46 276.811 266.002 276.811C266.763 276.811 267.383 276.503 267.861 275.888L268.757 276.742C268.461 277.184 268.064 277.528 267.567 277.774C267.075 278.016 266.521 278.137 265.906 278.137ZM265.708 271.8C265.252 271.8 264.883 271.959 264.601 272.278C264.323 272.597 264.145 273.042 264.067 273.611H267.232V273.488C267.196 272.932 267.048 272.513 266.788 272.23C266.528 271.943 266.168 271.8 265.708 271.8ZM276.646 274.377C276.646 275.521 276.386 276.435 275.866 277.118C275.347 277.797 274.649 278.137 273.774 278.137C272.963 278.137 272.314 277.87 271.826 277.337V280.844H270.165V270.604H271.696L271.765 271.355C272.252 270.763 272.915 270.467 273.754 270.467C274.656 270.467 275.363 270.804 275.873 271.479C276.388 272.148 276.646 273.08 276.646 274.274V274.377ZM274.991 274.233C274.991 273.495 274.843 272.91 274.547 272.477C274.255 272.044 273.836 271.827 273.289 271.827C272.61 271.827 272.122 272.107 271.826 272.668V275.949C272.127 276.523 272.619 276.811 273.303 276.811C273.831 276.811 274.244 276.599 274.54 276.175C274.841 275.746 274.991 275.099 274.991 274.233ZM281.93 272.121C281.711 272.085 281.485 272.066 281.253 272.066C280.492 272.066 279.979 272.358 279.715 272.941V278H278.054V270.604H279.64L279.681 271.431C280.082 270.788 280.638 270.467 281.349 270.467C281.586 270.467 281.782 270.499 281.937 270.562L281.93 272.121ZM286.1 278.137C285.047 278.137 284.192 277.806 283.536 277.146C282.884 276.48 282.559 275.596 282.559 274.493V274.288C282.559 273.55 282.7 272.891 282.982 272.312C283.27 271.729 283.671 271.276 284.186 270.952C284.701 270.629 285.275 270.467 285.908 270.467C286.915 270.467 287.692 270.788 288.239 271.431C288.791 272.073 289.066 272.982 289.066 274.158V274.828H284.233C284.284 275.439 284.486 275.922 284.842 276.277C285.202 276.633 285.653 276.811 286.195 276.811C286.956 276.811 287.576 276.503 288.055 275.888L288.95 276.742C288.654 277.184 288.257 277.528 287.761 277.774C287.269 278.016 286.715 278.137 286.1 278.137ZM285.901 271.8C285.446 271.8 285.076 271.959 284.794 272.278C284.516 272.597 284.338 273.042 284.261 273.611H287.426V273.488C287.389 272.932 287.241 272.513 286.981 272.23C286.722 271.943 286.362 271.8 285.901 271.8ZM294.508 275.99C294.508 275.694 294.385 275.468 294.139 275.313C293.897 275.159 293.494 275.022 292.929 274.903C292.364 274.785 291.892 274.634 291.514 274.452C290.684 274.051 290.27 273.47 290.27 272.709C290.27 272.071 290.538 271.538 291.076 271.109C291.614 270.681 292.298 270.467 293.127 270.467C294.011 270.467 294.724 270.686 295.267 271.123C295.813 271.561 296.087 272.128 296.087 272.825H294.426C294.426 272.506 294.307 272.242 294.07 272.032C293.833 271.818 293.519 271.711 293.127 271.711C292.762 271.711 292.464 271.795 292.231 271.964C292.004 272.132 291.89 272.358 291.89 272.641C291.89 272.896 291.997 273.094 292.211 273.235C292.425 273.377 292.858 273.52 293.51 273.666C294.161 273.807 294.672 273.978 295.041 274.179C295.415 274.375 295.69 274.612 295.868 274.89C296.05 275.168 296.142 275.505 296.142 275.901C296.142 276.567 295.866 277.107 295.314 277.521C294.763 277.932 294.041 278.137 293.147 278.137C292.541 278.137 292.001 278.027 291.527 277.809C291.053 277.59 290.684 277.289 290.42 276.906C290.156 276.523 290.023 276.111 290.023 275.669H291.637C291.66 276.061 291.808 276.364 292.081 276.578C292.354 276.788 292.717 276.893 293.168 276.893C293.605 276.893 293.938 276.811 294.166 276.646C294.394 276.478 294.508 276.259 294.508 275.99ZM300.852 278.137C299.799 278.137 298.944 277.806 298.288 277.146C297.636 276.48 297.311 275.596 297.311 274.493V274.288C297.311 273.55 297.452 272.891 297.734 272.312C298.021 271.729 298.423 271.276 298.938 270.952C299.452 270.629 300.027 270.467 300.66 270.467C301.667 270.467 302.444 270.788 302.991 271.431C303.543 272.073 303.818 272.982 303.818 274.158V274.828H298.985C299.035 275.439 299.238 275.922 299.594 276.277C299.954 276.633 300.405 276.811 300.947 276.811C301.708 276.811 302.328 276.503 302.807 275.888L303.702 276.742C303.406 277.184 303.009 277.528 302.513 277.774C302.021 278.016 301.467 278.137 300.852 278.137ZM300.653 271.8C300.198 271.8 299.828 271.959 299.546 272.278C299.268 272.597 299.09 273.042 299.013 273.611H302.178V273.488C302.141 272.932 301.993 272.513 301.733 272.23C301.474 271.943 301.114 271.8 300.653 271.8ZM306.655 270.604L306.703 271.458C307.25 270.797 307.968 270.467 308.856 270.467C310.397 270.467 311.181 271.349 311.208 273.112V278H309.547V273.208C309.547 272.739 309.444 272.392 309.239 272.169C309.039 271.941 308.708 271.827 308.248 271.827C307.578 271.827 307.079 272.13 306.751 272.736V278H305.09V270.604H306.655ZM314.988 268.806V270.604H316.294V271.834H314.988V275.963C314.988 276.245 315.043 276.451 315.152 276.578C315.266 276.701 315.467 276.763 315.754 276.763C315.945 276.763 316.139 276.74 316.335 276.694V277.979C315.957 278.084 315.592 278.137 315.241 278.137C313.965 278.137 313.327 277.433 313.327 276.024V271.834H312.11V270.604H313.327V268.806H314.988ZM321.988 278C321.915 277.859 321.852 277.629 321.797 277.31C321.268 277.861 320.621 278.137 319.855 278.137C319.113 278.137 318.507 277.925 318.037 277.501C317.568 277.077 317.333 276.553 317.333 275.929C317.333 275.14 317.625 274.536 318.208 274.117C318.796 273.693 319.634 273.481 320.724 273.481H321.742V272.996C321.742 272.613 321.635 272.308 321.421 272.08C321.207 271.848 320.881 271.731 320.443 271.731C320.065 271.731 319.755 271.827 319.514 272.019C319.272 272.205 319.151 272.445 319.151 272.736H317.49C317.49 272.331 317.625 271.952 317.894 271.602C318.162 271.246 318.527 270.968 318.987 270.768C319.452 270.567 319.969 270.467 320.539 270.467C321.405 270.467 322.095 270.686 322.61 271.123C323.125 271.556 323.39 272.167 323.403 272.955V276.291C323.403 276.956 323.497 277.487 323.684 277.884V278H321.988ZM320.163 276.804C320.491 276.804 320.799 276.724 321.086 276.564C321.378 276.405 321.596 276.191 321.742 275.922V274.527H320.847C320.231 274.527 319.769 274.634 319.459 274.849C319.149 275.063 318.994 275.366 318.994 275.758C318.994 276.077 319.099 276.332 319.309 276.523C319.523 276.71 319.808 276.804 320.163 276.804ZM327.225 268.806V270.604H328.53V271.834H327.225V275.963C327.225 276.245 327.279 276.451 327.389 276.578C327.503 276.701 327.703 276.763 327.99 276.763C328.182 276.763 328.375 276.74 328.571 276.694V277.979C328.193 278.084 327.828 278.137 327.478 278.137C326.201 278.137 325.563 277.433 325.563 276.024V271.834H324.347V270.604H325.563V268.806H327.225ZM331.572 278H329.911V270.604H331.572V278ZM329.809 268.683C329.809 268.427 329.888 268.215 330.048 268.047C330.212 267.878 330.444 267.794 330.745 267.794C331.046 267.794 331.278 267.878 331.442 268.047C331.606 268.215 331.688 268.427 331.688 268.683C331.688 268.933 331.606 269.143 331.442 269.312C331.278 269.476 331.046 269.558 330.745 269.558C330.444 269.558 330.212 269.476 330.048 269.312C329.888 269.143 329.809 268.933 329.809 268.683ZM335.995 275.895L337.561 270.604H339.276L336.713 278H335.271L332.687 270.604H334.409L335.995 275.895ZM343.48 278.137C342.428 278.137 341.573 277.806 340.917 277.146C340.265 276.48 339.939 275.596 339.939 274.493V274.288C339.939 273.55 340.081 272.891 340.363 272.312C340.65 271.729 341.051 271.276 341.566 270.952C342.081 270.629 342.656 270.467 343.289 270.467C344.296 270.467 345.073 270.788 345.62 271.431C346.172 272.073 346.447 272.982 346.447 274.158V274.828H341.614C341.664 275.439 341.867 275.922 342.223 276.277C342.583 276.633 343.034 276.811 343.576 276.811C344.337 276.811 344.957 276.503 345.436 275.888L346.331 276.742C346.035 277.184 345.638 277.528 345.142 277.774C344.649 278.016 344.096 278.137 343.48 278.137ZM343.282 271.8C342.826 271.8 342.457 271.959 342.175 272.278C341.897 272.597 341.719 273.042 341.642 273.611H344.807V273.488C344.77 272.932 344.622 272.513 344.362 272.23C344.103 271.943 343.743 271.8 343.282 271.8ZM349.284 270.604L349.332 271.458C349.879 270.797 350.597 270.467 351.485 270.467C353.026 270.467 353.81 271.349 353.837 273.112V278H352.176V273.208C352.176 272.739 352.073 272.392 351.868 272.169C351.668 271.941 351.337 271.827 350.877 271.827C350.207 271.827 349.708 272.13 349.38 272.736V278H347.719V270.604H349.284ZM358.793 278.137C357.74 278.137 356.886 277.806 356.229 277.146C355.578 276.48 355.252 275.596 355.252 274.493V274.288C355.252 273.55 355.393 272.891 355.676 272.312C355.963 271.729 356.364 271.276 356.879 270.952C357.394 270.629 357.968 270.467 358.602 270.467C359.609 270.467 360.386 270.788 360.933 271.431C361.484 272.073 361.76 272.982 361.76 274.158V274.828H356.927C356.977 275.439 357.18 275.922 357.535 276.277C357.895 276.633 358.346 276.811 358.889 276.811C359.65 276.811 360.27 276.503 360.748 275.888L361.644 276.742C361.347 277.184 360.951 277.528 360.454 277.774C359.962 278.016 359.408 278.137 358.793 278.137ZM358.595 271.8C358.139 271.8 357.77 271.959 357.487 272.278C357.209 272.597 357.032 273.042 356.954 273.611H360.119V273.488C360.083 272.932 359.935 272.513 359.675 272.23C359.415 271.943 359.055 271.8 358.595 271.8ZM367.201 275.99C367.201 275.694 367.078 275.468 366.832 275.313C366.59 275.159 366.187 275.022 365.622 274.903C365.057 274.785 364.585 274.634 364.207 274.452C363.378 274.051 362.963 273.47 362.963 272.709C362.963 272.071 363.232 271.538 363.77 271.109C364.307 270.681 364.991 270.467 365.82 270.467C366.704 270.467 367.418 270.686 367.96 271.123C368.507 271.561 368.78 272.128 368.78 272.825H367.119C367.119 272.506 367.001 272.242 366.764 272.032C366.527 271.818 366.212 271.711 365.82 271.711C365.456 271.711 365.157 271.795 364.925 271.964C364.697 272.132 364.583 272.358 364.583 272.641C364.583 272.896 364.69 273.094 364.904 273.235C365.118 273.377 365.551 273.52 366.203 273.666C366.855 273.807 367.365 273.978 367.734 274.179C368.108 274.375 368.384 274.612 368.562 274.89C368.744 275.168 368.835 275.505 368.835 275.901C368.835 276.567 368.559 277.107 368.008 277.521C367.456 277.932 366.734 278.137 365.841 278.137C365.235 278.137 364.695 278.027 364.221 277.809C363.747 277.59 363.378 277.289 363.113 276.906C362.849 276.523 362.717 276.111 362.717 275.669H364.33C364.353 276.061 364.501 276.364 364.774 276.578C365.048 276.788 365.41 276.893 365.861 276.893C366.299 276.893 366.632 276.811 366.859 276.646C367.087 276.478 367.201 276.259 367.201 275.99ZM374.434 275.99C374.434 275.694 374.311 275.468 374.064 275.313C373.823 275.159 373.42 275.022 372.854 274.903C372.289 274.785 371.818 274.634 371.439 274.452C370.61 274.051 370.195 273.47 370.195 272.709C370.195 272.071 370.464 271.538 371.002 271.109C371.54 270.681 372.223 270.467 373.053 270.467C373.937 270.467 374.65 270.686 375.192 271.123C375.739 271.561 376.013 272.128 376.013 272.825H374.352C374.352 272.506 374.233 272.242 373.996 272.032C373.759 271.818 373.445 271.711 373.053 271.711C372.688 271.711 372.39 271.795 372.157 271.964C371.929 272.132 371.815 272.358 371.815 272.641C371.815 272.896 371.923 273.094 372.137 273.235C372.351 273.377 372.784 273.52 373.436 273.666C374.087 273.807 374.598 273.978 374.967 274.179C375.34 274.375 375.616 274.612 375.794 274.89C375.976 275.168 376.067 275.505 376.067 275.901C376.067 276.567 375.792 277.107 375.24 277.521C374.689 277.932 373.966 278.137 373.073 278.137C372.467 278.137 371.927 278.027 371.453 277.809C370.979 277.59 370.61 277.289 370.346 276.906C370.081 276.523 369.949 276.111 369.949 275.669H371.562C371.585 276.061 371.733 276.364 372.007 276.578C372.28 276.788 372.643 276.893 373.094 276.893C373.531 276.893 373.864 276.811 374.092 276.646C374.32 276.478 374.434 276.259 374.434 275.99Z" fill="black"/>
<path d="M11.4688 130.437C11.4688 129.999 11.3138 129.662 11.0039 129.425C10.6986 129.188 10.1449 128.949 9.34277 128.707C8.54069 128.465 7.90267 128.197 7.42871 127.9C6.52181 127.331 6.06836 126.588 6.06836 125.672C6.06836 124.87 6.39421 124.209 7.0459 123.689C7.70215 123.17 8.55208 122.91 9.5957 122.91C10.2884 122.91 10.9059 123.038 11.4482 123.293C11.9906 123.548 12.4167 123.913 12.7266 124.387C13.0365 124.856 13.1914 125.378 13.1914 125.952H11.4688C11.4688 125.433 11.3047 125.027 10.9766 124.735C10.653 124.439 10.1882 124.291 9.58203 124.291C9.01693 124.291 8.57715 124.412 8.2627 124.653C7.9528 124.895 7.79785 125.232 7.79785 125.665C7.79785 126.03 7.96647 126.335 8.30371 126.581C8.64095 126.823 9.19694 127.06 9.97168 127.292C10.7464 127.52 11.3685 127.782 11.8379 128.078C12.3073 128.37 12.6514 128.707 12.8701 129.09C13.0889 129.468 13.1982 129.912 13.1982 130.423C13.1982 131.252 12.8792 131.913 12.2412 132.405C11.6077 132.893 10.7464 133.137 9.65723 133.137C8.93717 133.137 8.27409 133.005 7.66797 132.74C7.06641 132.471 6.59701 132.102 6.25977 131.633C5.92708 131.163 5.76074 130.617 5.76074 129.992H7.49023C7.49023 130.557 7.67708 130.995 8.05078 131.305C8.42448 131.615 8.95996 131.77 9.65723 131.77C10.2588 131.77 10.71 131.649 11.0107 131.407C11.3161 131.161 11.4688 130.838 11.4688 130.437ZM18.9746 133C18.9017 132.859 18.8379 132.629 18.7832 132.31C18.2546 132.861 17.6074 133.137 16.8418 133.137C16.099 133.137 15.4928 132.925 15.0234 132.501C14.554 132.077 14.3193 131.553 14.3193 130.929C14.3193 130.14 14.611 129.536 15.1943 129.117C15.7822 128.693 16.6208 128.481 17.71 128.481H18.7285V127.996C18.7285 127.613 18.6214 127.308 18.4072 127.08C18.193 126.848 17.8672 126.731 17.4297 126.731C17.0514 126.731 16.7415 126.827 16.5 127.019C16.2585 127.205 16.1377 127.445 16.1377 127.736H14.4766C14.4766 127.331 14.611 126.952 14.8799 126.602C15.1488 126.246 15.5133 125.968 15.9736 125.768C16.4385 125.567 16.9557 125.467 17.5254 125.467C18.3913 125.467 19.0817 125.686 19.5967 126.123C20.1117 126.556 20.376 127.167 20.3896 127.955V131.291C20.3896 131.956 20.4831 132.487 20.6699 132.884V133H18.9746ZM17.1494 131.804C17.4775 131.804 17.7852 131.724 18.0723 131.564C18.3639 131.405 18.5827 131.191 18.7285 130.922V129.527H17.833C17.2178 129.527 16.7552 129.634 16.4453 129.849C16.1354 130.063 15.9805 130.366 15.9805 130.758C15.9805 131.077 16.0853 131.332 16.2949 131.523C16.5091 131.71 16.7939 131.804 17.1494 131.804ZM23.6914 125.604L23.7393 126.376C24.2588 125.77 24.9697 125.467 25.8721 125.467C26.861 125.467 27.5378 125.845 27.9023 126.602C28.4401 125.845 29.1966 125.467 30.1719 125.467C30.9876 125.467 31.5938 125.692 31.9902 126.144C32.3913 126.595 32.5964 127.26 32.6055 128.14V133H30.9443V128.188C30.9443 127.718 30.8418 127.374 30.6367 127.155C30.4316 126.937 30.0921 126.827 29.6182 126.827C29.2399 126.827 28.93 126.93 28.6885 127.135C28.4515 127.335 28.2852 127.6 28.1895 127.928L28.1963 133H26.5352V128.133C26.5124 127.262 26.068 126.827 25.2021 126.827C24.5368 126.827 24.0651 127.098 23.7871 127.641V133H22.126V125.604H23.6914ZM40.7881 129.377C40.7881 130.521 40.5283 131.435 40.0088 132.118C39.4893 132.797 38.792 133.137 37.917 133.137C37.1058 133.137 36.4564 132.87 35.9688 132.337V135.844H34.3076V125.604H35.8389L35.9072 126.355C36.3949 125.763 37.0579 125.467 37.8965 125.467C38.7988 125.467 39.5052 125.804 40.0156 126.479C40.5306 127.148 40.7881 128.08 40.7881 129.274V129.377ZM39.1338 129.233C39.1338 128.495 38.9857 127.91 38.6895 127.477C38.3978 127.044 37.9785 126.827 37.4316 126.827C36.7526 126.827 36.265 127.107 35.9688 127.668V130.949C36.2695 131.523 36.7617 131.811 37.4453 131.811C37.974 131.811 38.3864 131.599 38.6826 131.175C38.9834 130.746 39.1338 130.099 39.1338 129.233ZM43.9668 133H42.3057V122.5H43.9668V133ZM47.5488 133H45.8877V125.604H47.5488V133ZM45.7852 123.683C45.7852 123.427 45.8649 123.215 46.0244 123.047C46.1885 122.878 46.4209 122.794 46.7217 122.794C47.0225 122.794 47.2549 122.878 47.4189 123.047C47.583 123.215 47.665 123.427 47.665 123.683C47.665 123.933 47.583 124.143 47.4189 124.312C47.2549 124.476 47.0225 124.558 46.7217 124.558C46.4209 124.558 46.1885 124.476 46.0244 124.312C45.8649 124.143 45.7852 123.933 45.7852 123.683ZM50.9053 125.604L50.9531 126.458C51.5 125.797 52.2178 125.467 53.1064 125.467C54.6468 125.467 55.4307 126.349 55.458 128.112V133H53.7969V128.208C53.7969 127.739 53.6943 127.392 53.4893 127.169C53.2887 126.941 52.9583 126.827 52.498 126.827C51.8281 126.827 51.3291 127.13 51.001 127.736V133H49.3398V125.604H50.9053ZM56.8662 129.247C56.8662 128.099 57.1351 127.183 57.6729 126.499C58.2152 125.811 58.9329 125.467 59.8262 125.467C60.6693 125.467 61.3324 125.761 61.8154 126.349L61.8906 125.604H63.3877V132.774C63.3877 133.745 63.0846 134.511 62.4785 135.071C61.877 135.632 61.0635 135.912 60.0381 135.912C59.4958 135.912 58.9648 135.798 58.4453 135.57C57.9303 135.347 57.5384 135.053 57.2695 134.688L58.0557 133.69C58.5661 134.297 59.195 134.6 59.9424 134.6C60.4938 134.6 60.929 134.449 61.248 134.148C61.5671 133.852 61.7266 133.415 61.7266 132.836V132.337C61.248 132.87 60.61 133.137 59.8125 133.137C58.9466 133.137 58.238 132.793 57.6865 132.104C57.1396 131.416 56.8662 130.464 56.8662 129.247ZM58.5205 129.391C58.5205 130.133 58.6709 130.719 58.9717 131.147C59.277 131.571 59.6986 131.783 60.2363 131.783C60.9062 131.783 61.403 131.496 61.7266 130.922V127.668C61.4121 127.107 60.9199 126.827 60.25 126.827C59.7031 126.827 59.277 127.044 58.9717 127.477C58.6709 127.91 58.5205 128.548 58.5205 129.391ZM71.8438 133.137C70.791 133.137 69.9365 132.806 69.2803 132.146C68.6286 131.48 68.3027 130.596 68.3027 129.493V129.288C68.3027 128.55 68.444 127.891 68.7266 127.312C69.0137 126.729 69.4147 126.276 69.9297 125.952C70.4447 125.629 71.0189 125.467 71.6523 125.467C72.6595 125.467 73.4365 125.788 73.9834 126.431C74.5348 127.073 74.8105 127.982 74.8105 129.158V129.828H69.9775C70.0277 130.439 70.2305 130.922 70.5859 131.277C70.946 131.633 71.3971 131.811 71.9395 131.811C72.7005 131.811 73.3203 131.503 73.7988 130.888L74.6943 131.742C74.3981 132.184 74.0016 132.528 73.5049 132.774C73.0127 133.016 72.459 133.137 71.8438 133.137ZM71.6455 126.8C71.1898 126.8 70.8206 126.959 70.5381 127.278C70.2601 127.597 70.0824 128.042 70.0049 128.611H73.1699V128.488C73.1335 127.932 72.9854 127.513 72.7256 127.23C72.4658 126.943 72.1058 126.8 71.6455 126.8ZM79.9785 127.121C79.7598 127.085 79.5342 127.066 79.3018 127.066C78.5407 127.066 78.028 127.358 77.7637 127.941V133H76.1025V125.604H77.6885L77.7295 126.431C78.1305 125.788 78.6865 125.467 79.3975 125.467C79.6344 125.467 79.8304 125.499 79.9854 125.562L79.9785 127.121ZM84.9004 127.121C84.6816 127.085 84.4561 127.066 84.2236 127.066C83.4626 127.066 82.9499 127.358 82.6855 127.941V133H81.0244V125.604H82.6104L82.6514 126.431C83.0524 125.788 83.6084 125.467 84.3193 125.467C84.5563 125.467 84.7523 125.499 84.9072 125.562L84.9004 127.121ZM85.3926 129.233C85.3926 128.509 85.5361 127.857 85.8232 127.278C86.1104 126.695 86.5137 126.248 87.0332 125.938C87.5527 125.624 88.1497 125.467 88.8242 125.467C89.8223 125.467 90.6312 125.788 91.251 126.431C91.8753 127.073 92.2126 127.925 92.2627 128.987L92.2695 129.377C92.2695 130.106 92.1283 130.758 91.8457 131.332C91.5677 131.906 91.1667 132.351 90.6426 132.665C90.123 132.979 89.5215 133.137 88.8379 133.137C87.7943 133.137 86.958 132.79 86.3291 132.098C85.7048 131.4 85.3926 130.473 85.3926 129.315V129.233ZM87.0537 129.377C87.0537 130.138 87.2109 130.735 87.5254 131.168C87.8398 131.596 88.2773 131.811 88.8379 131.811C89.3984 131.811 89.8337 131.592 90.1436 131.154C90.458 130.717 90.6152 130.076 90.6152 129.233C90.6152 128.486 90.4535 127.894 90.1299 127.456C89.8109 127.019 89.3757 126.8 88.8242 126.8C88.2819 126.8 87.8512 127.016 87.5322 127.449C87.2132 127.878 87.0537 128.52 87.0537 129.377ZM97.5469 127.121C97.3281 127.085 97.1025 127.066 96.8701 127.066C96.109 127.066 95.5964 127.358 95.332 127.941V133H93.6709V125.604H95.2568L95.2979 126.431C95.6989 125.788 96.2549 125.467 96.9658 125.467C97.2028 125.467 97.3988 125.499 97.5537 125.562L97.5469 127.121Z" fill="black"/>
</svg>
